<?xml version="1.0" encoding="UTF-8"?>
<svg id="Layer_1" data-name="Layer 1" xmlns="http://www.w3.org/2000/svg" viewBox="0 0 822 1021">
  <defs>
    <style>
      .cls-1 {
        font-family: Montserrat-Bold, Montserrat;
        font-size: 200px;
        font-weight: 700;
        letter-spacing: 0em;
      }

      .cls-1, .cls-2, .cls-3 {
        fill: #fff;
      }

      .cls-2 {
        font-family: Montserrat-Light, Montserrat;
        font-size: 127.09px;
        font-weight: 300;
        letter-spacing: -.05em;
      }
    </style>
  </defs>
  <text class="cls-2" transform="translate(24.34 832.53)"><tspan x="0" y="0">Enterprise for</tspan></text>
  <text class="cls-1" transform="translate(10.61 1014.79)"><tspan x="0" y="0">Flux CD</tspan></text>
  <g>
    <path class="cls-3" d="M475.86,282.91l-5.91-9.98c.22.22.33.33.43.54l5.47,9.45Z"/>
    <path class="cls-3" d="M678.55,636.03h-.03l-16.48-28.74-24.69-43.29-16.29-28.48-101.15-176.72h.02s-.21-.33-.21-.33l-43.4-75.55-5.88-9.98c-.42-.74-.95-1.37-1.58-1.89-1.16-1.16-2.52-1.79-3.99-2.21-.53-.21-1.16-.31-1.89-.21-.32,0-.53-.1-.84-.1-6.41,0-13.66,4.83-14.5,11.87l-5.67,59.68-4.83,49.7c-.74,8.09,8.62,11.87,16.81,7.04l25.5-14.93,145.42,254.24-37.31-.11-48.92-.11-229.62-.43-262.99.54-26.5,45.71,568.03.22h117.39l-26.39-45.93Z"/>
    <path class="cls-3" d="M536.49,573.01l-48.61-35.07-40.47-29.21c-6.51-4.7-14.56,1.3-14.56,10.84v30.06H151.76l43.2-74.55,115.25-198.5L438.74,50.29l-26.39-45.81L71.89,596.12l46.41.09h0s325.65.01,325.65.01v-.02l59.6.23h28c10.19,0,13.73-17.12,4.94-23.42"/>
    <path class="cls-3" d="M461.59,85.91l-23.64,40.67h-.03s-162.76,282.01-162.76,282.01l-2.94,5.04-46.34,79.75c-1.79,3.05-1.79,6.2-.74,8.83,2.73,6.09,11.14,10.72,17.97,7.78l54.74-24.59,45.5-20.38c7.25-3.36,6.09-13.34-2.21-18.18l-25.64-14.92,146.37-253.62,42.95,74.67,114.38,199.15,130.37,231.12,52.89.11L461.59,85.91Z"/>
  </g>
</svg>