<?xml version="1.0" encoding="UTF-8"?>
<svg id="Layer_1" data-name="Layer 1" xmlns="http://www.w3.org/2000/svg" viewBox="0 0 2010 686">
  <defs>
    <style>
      .cls-1 {
        font-family: Montserrat-Bold, Montserrat;
        font-size: 300px;
        font-weight: 700;
        letter-spacing: 0em;
      }

      .cls-1, .cls-2 {
        fill: #1472eb;
      }

      .cls-3, .cls-4 {
        fill: #72aefa;
      }

      .cls-4 {
        font-family: Montserrat-Light, Montserrat;
        font-size: 180px;
        font-weight: 300;
        letter-spacing: -.05em;
      }

      .cls-5 {
        fill: #bed3fc;
      }
    </style>
  </defs>
  <path class="cls-5" d="M555.34,196.72l-7.18-12.14c.27.27.4.4.52.65l6.66,11.49Z"/>
  <g>
    <g>
      <text class="cls-4" transform="translate(817.6 308.53)"><tspan x="0" y="0">Enterprise for</tspan></text>
      <text class="cls-1" transform="translate(813.63 579.07)"><tspan x="0" y="0">Flux CD</tspan></text>
    </g>
    <g>
      <path class="cls-5" d="M654.9,636.8h-.03l-16.37-28.55-24.53-43-16.18-28.29-100.48-175.55h.02s-.21-.32-.21-.32l-43.11-75.05-5.85-9.92c-.42-.73-.94-1.36-1.57-1.88-1.15-1.15-2.5-1.77-3.97-2.19-.52-.21-1.15-.31-1.88-.21-.31,0-.52-.1-.84-.1-6.37,0-13.57,4.8-14.4,11.79l-5.64,59.29-4.8,49.37c-.73,8.04,8.56,11.79,16.7,6.99l25.33-14.83,144.46,252.55-37.06-.1-48.6-.1-228.09-.43-261.24.53L.25,682.2l564.26.22h116.61l-26.22-45.62Z"/>
      <path class="cls-3" d="M513.78,574.2l-48.28-34.84-40.21-29.02c-6.47-4.67-14.47,1.29-14.47,10.77v29.86H131.61l42.91-74.06,114.48-197.18,127.68-224.8-26.22-45.51L52.27,597.15l46.1.09h0s323.48.01,323.48.01v-.02l59.2.23h27.82c10.12,0,13.64-17,4.91-23.27"/>
      <path class="cls-2" d="M439.38,90.34l-23.48,40.4h-.03s-161.68,280.14-161.68,280.14l-2.92,5.01-46.03,79.22c-1.77,3.03-1.77,6.16-.73,8.77,2.71,6.05,11.06,10.65,17.85,7.72l54.38-24.42,45.2-20.25c7.2-3.34,6.05-13.26-2.19-18.06l-25.47-14.82,145.4-251.93,42.67,74.17,113.62,197.82,129.5,229.59,52.54.1L439.38,90.34Z"/>
    </g>
  </g>
</svg>