<svg height="70" viewBox="0 0 335 70" width="335" xmlns="http://www.w3.org/2000/svg"><g fill="#fff" fill-rule="evenodd" transform=""><path d="m122.164 31.824c-1.296006-1.4160071-2.97599-2.124-5.04-2.124-1.560008 0-2.825995.5279947-3.798 1.584s-1.458 2.4239916-1.458 4.104c0 1.7280086.485995 3.1199947 1.458 4.176s2.237992 1.584 3.798 1.584c2.304012 0 4.031994-.7559924 5.184-2.268l2.916 2.412c-.864004 1.2480062-2.003993 2.2079966-3.42 2.88s-3.059991 1.008-4.932 1.008c-1.896009 0-3.581993-.4079959-5.058-1.224s-2.621996-1.9619926-3.438-3.438-1.224-3.1739904-1.224-5.094c0-1.9440097.413996-3.6599926 1.242-5.148s1.979993-2.6399959 3.456-3.456 3.17399-1.224 5.094-1.224c1.752009 0 3.317993.3059969 4.698.918s2.501996 1.4819944 3.366 2.61zm15.48-6.228c1.99201 0 3.749992.4079959 5.274 1.224s2.711996 1.9619926 3.564 3.438 1.278 3.1739904 1.278 5.094c0 1.9440097-.425996 3.6599926-1.278 5.148s-2.039992 2.6399959-3.564 3.456-3.28199 1.224-5.274 1.224c-2.01601 0-3.791992-.4079959-5.328-1.224s-2.729996-1.9679926-3.582-3.456-1.278-3.2039903-1.278-5.148c0-1.9200096.425996-3.6179926 1.278-5.094s2.045992-2.6219959 3.582-3.438 3.31199-1.224 5.328-1.224zm0 3.996c-1.632008 0-2.951995.5399946-3.96 1.62s-1.512 2.4839914-1.512 4.212.503995 3.1319946 1.512 4.212 2.327992 1.62 3.96 1.62c1.584008 0 2.879995-.5399946 3.888-1.62s1.512-2.4839914 1.512-4.212-.503995-3.1319946-1.512-4.212-2.303992-1.62-3.888-1.62zm25.776-4.032c2.208011 0 3.947994.6659933 5.22 1.998s1.908 3.1379886 1.908 5.418v12.024h-4.716v-10.656c0-1.3440067-.383996-2.4059961-1.152-3.186s-1.811993-1.17-3.132-1.17c-1.560008.0240001-2.789995.5519948-3.69 1.584-.900004 1.0320052-1.35 2.351992-1.35 3.96v9.468h-4.68v-19.26h4.68v3.6c1.320007-2.4720124 3.623984-3.7319998 6.912-3.78zm23.652 18.252c-1.536008.9360047-3.143992 1.404-4.824 1.404-1.656008 0-3.011995-.4859951-4.068-1.458s-1.584-2.4059905-1.584-4.302v-9.504h-2.7l-.036-3.42h2.736v-5.292h4.644v5.292h5.508v3.42h-5.508v8.676c0 .8880044.167998 1.5179981.504 1.89s.839997.558 1.512.558c.720004 0 1.631994-.2639974 2.736-.792zm8.352-14.364c.648003-1.2480062 1.529994-2.2019967 2.646-2.862s2.417993-1.0019999 3.906-1.026v4.536c-1.99201-.1200006-3.581994.3419948-4.77 1.386s-1.782 2.4539911-1.782 4.23v9.288h-4.68v-19.26h4.68zm18.252-3.852c1.99201 0 3.749992.4079959 5.274 1.224s2.711996 1.9619926 3.564 3.438 1.278 3.1739904 1.278 5.094c0 1.9440097-.425996 3.6599926-1.278 5.148s-2.039992 2.6399959-3.564 3.456-3.28199 1.224-5.274 1.224c-2.01601 0-3.791992-.4079959-5.328-1.224s-2.729996-1.9679926-3.582-3.456-1.278-3.2039903-1.278-5.148c0-1.9200096.425996-3.6179926 1.278-5.094s2.045992-2.6219959 3.582-3.438 3.31199-1.224 5.328-1.224zm0 3.996c-1.632008 0-2.951995.5399946-3.96 1.62s-1.512 2.4839914-1.512 4.212.503995 3.1319946 1.512 4.212 2.327992 1.62 3.96 1.62c1.584008 0 2.879995-.5399946 3.888-1.62s1.512-2.4839914 1.512-4.212-.503995-3.1319946-1.512-4.212-2.303992-1.62-3.888-1.62zm14.364-11.304h4.68v26.712h-4.68zm21.636 7.56c1.776009 0 3.359993.4079959 4.752 1.224s2.471996 1.9559927 3.24 3.42 1.152 3.1439905 1.152 5.04c0 1.8720094-.377996 3.5339927-1.134 4.986s-1.823993 2.579996-3.204 3.384-2.957991 1.206-4.734 1.206c-1.608008 0-3.023994-.3359966-4.248-1.008s-2.183997-1.6319938-2.88-2.88v10.764h-3.348v-26.028h3.348v3.78c.696003-1.2480062 1.649994-2.2079966 2.862-2.88s2.609992-1.008 4.194-1.008zm-.648 16.344c1.224006 0 2.321995-.2879971 3.294-.864s1.727997-1.3799948 2.268-2.412.81-2.1959935.81-3.492c0-1.2720064-.275997-2.4239948-.828-3.456s-1.307995-1.8359971-2.268-2.412-2.051994-.864-3.276-.864-2.321995.2879971-3.294.864-1.733997 1.3799948-2.286 2.412-.828 2.1839936-.828 3.456c0 1.3200066.275997 2.4899949.828 3.51s1.313995 1.8179971 2.286 2.394 2.069994.864 3.294.864zm14.652-23.904h3.348v26.712h-3.348zm21.708 26.712v-2.664c-1.416007 1.8720094-3.635985 2.808-6.66 2.808-1.320007 0-2.477995-.2519975-3.474-.756s-1.763997-1.1999956-2.304-2.088-.81-1.8839945-.81-2.988c0-1.7040085.629994-3.053995 1.89-4.05s3.017989-1.5059999 5.274-1.53h6.048v-.9c0-1.3440067-.413996-2.3819963-1.242-3.114s-2.033992-1.098-3.618-1.098c-1.92001 0-3.87599.6839932-5.868 2.052l-1.404-2.304c1.368007-.8880044 2.633994-1.529998 3.798-1.926s2.549992-.594 4.158-.594c2.376012 0 4.211994.5819942 5.508 1.746s1.956 2.7899896 1.98 4.878l.036 12.528zm-5.976-2.628c1.560008 0 2.885995-.3779962 3.978-1.134s1.745999-1.7579938 1.962-3.006v-1.908h-5.58c-1.512008 0-2.633996.2279977-3.366.684s-1.098 1.1759951-1.098 2.16.371996 1.7639971 1.116 2.34 1.739994.864 2.988.864zm25.848-16.524c2.232011 0 3.983994.6539935 5.256 1.962s1.908 3.1139885 1.908 5.418v11.772h-3.348v-10.872c0-1.608008-.449995-2.8619955-1.35-3.762-.900004-.9000045-2.141992-1.35-3.726-1.35-1.704009.0240001-3.089995.5699947-4.158 1.638s-1.673999 2.4539915-1.818 4.158v10.188h-3.348v-19.044h3.348v4.032c1.272006-2.7120136 3.683982-4.0919998 7.236-4.14zm20.772 0c2.952015 0 5.183992.8699913 6.696 2.61s2.268 4.1579845 2.268 7.254c0 .4800024-.012.8399988-.036 1.08h-15.048c.264001 1.7040085.977994 3.059995 2.142 4.068s2.597991 1.512 4.302 1.512c1.128006 0 2.177995-.203998 3.15-.612s1.817996-.9839963 2.538-1.728l1.836 1.908c-.936005 1.008005-2.063993 1.7879972-3.384 2.34s-2.783992.828-4.392.828c-1.872009 0-3.533993-.401996-4.986-1.206s-2.579996-1.9379927-3.384-3.402-1.206-3.1319906-1.206-5.004.401996-3.5339927 1.206-4.986 1.925993-2.5919959 3.366-3.42 3.083991-1.242 4.932-1.242zm5.94 8.352c-.096-1.7280086-.671995-3.089995-1.728-4.086s-2.447991-1.494-4.176-1.494c-1.680008 0-3.077994.503995-4.194 1.512s-1.781999 2.3639915-1.998 4.068z"/><g fill-rule="nonzero"><path d="m19.3959518 57.3191223h-17.24090789c-.77368573 0-1.49133852-.4096365-1.87494872-1.0760916-.3836102-.6664552-.37283464-1.4836056.03017159-2.1394484l32.32670222-53.06171654c.3879204-.63886306 1.1077283-1.12703086 1.8447771-1.0293973.7542897 0 1.4482363.3862893 1.8404669 1.01666249l9.191559 14.85091325-3.6809338 2.2094898-7.3360063-11.85398743-13.8088452 22.66749313-14.72485726 24.1711453h13.43282236z"/><path d="m93.2011015 69.9767305h-81.8943123c-.777996 0-1.49780386-.4138814-1.88141406-1.086704-.38145509-.6685776-.36421418-1.489973.04525738-2.1479383l40.94715618-65.79652841c.780151-1.26074639 2.8921623-1.26074639 3.6744684 0l40.9471562 65.79652841c.4051613.6579653.4224022 1.4751158.0431023 2.1479383-.3814551.6728226-1.101263 1.086704-1.8814141 1.086704zm-78.0452796-4.2449373h74.198402l-37.1002786-59.61165482z"/></g></g></svg>